<?xml version="1.0" encoding="utf-8"?>
<!-- Generator: Adobe Illustrator 16.0.0, SVG Export Plug-In . SVG Version: 6.00 Build 0)  -->
<!DOCTYPE svg PUBLIC "-//W3C//DTD SVG 1.1//EN" "http://www.w3.org/Graphics/SVG/1.1/DTD/svg11.dtd">
<svg version="1.1" id="Layer_1" xmlns="http://www.w3.org/2000/svg" xmlns:xlink="http://www.w3.org/1999/xlink" x="0px" y="0px"
	 width="143.52px" height="9.99px" viewBox="0 0 143.52 9.99" enable-background="new 0 0 143.52 9.99" xml:space="preserve">
<g>
	<path fill="#FFFFFF" d="M6.729,9.763C6.393,9.931,5.637,10.11,4.653,10.11c-2.795,0-4.233-1.739-4.233-4.043
		c0-2.757,1.968-4.292,4.413-4.292c0.947,0,1.668,0.191,1.991,0.359L6.452,3.586c-0.371-0.156-0.887-0.3-1.535-0.3
		c-1.451,0-2.578,0.876-2.578,2.675c0,1.619,0.959,2.64,2.591,2.64c0.553,0,1.163-0.121,1.522-0.266L6.729,9.763z"/>
	<path fill="#FFFFFF" d="M9.767,1.907v3.106h3.01V1.907H14.6V9.99h-1.823V6.608h-3.01V9.99H7.931V1.907H9.767z"/>
	<path fill="#FFFFFF" d="M24.019,0.432c0.155,0.312,0.264,0.708,0.264,1.115c0,0.731-0.407,1.224-1.283,1.308l-0.203,0.023V6.44
		c0,2.494-1.26,3.682-3.371,3.682c-2.037,0-3.236-1.127-3.236-3.706V1.907h1.835V6.56c0,1.392,0.526,2.1,1.463,2.1
		c0.959,0,1.487-0.672,1.487-2.1V1.907h1.392c0.491,0,0.623-0.156,0.623-0.468c0-0.252-0.084-0.528-0.252-0.804L24.019,0.432z
		 M21.501,0l-1.476,1.476h-1.464L19.581,0H21.501z"/>
	<path fill="#FFFFFF" d="M24.935,9.99V1.907h2.135l1.68,2.962c0.48,0.853,0.959,1.858,1.319,2.771h0.036
		c-0.12-1.066-0.156-2.158-0.156-3.37V1.907h1.68V9.99h-1.92l-1.727-3.118c-0.48-0.863-1.008-1.907-1.403-2.854L26.543,4.03
		c0.049,1.068,0.072,2.207,0.072,3.525V9.99H24.935z"/>
	<path fill="#FFFFFF" d="M39.968,9.619c-0.563,0.19-1.632,0.455-2.698,0.455c-1.476,0-2.543-0.371-3.286-1.091
		c-0.743-0.696-1.151-1.752-1.141-2.938c0.013-2.687,1.968-4.222,4.617-4.222c1.044,0,1.849,0.204,2.243,0.396l-0.384,1.463
		c-0.443-0.191-0.995-0.348-1.883-0.348c-1.523,0-2.674,0.863-2.674,2.614c0,1.668,1.043,2.65,2.542,2.65
		c0.42,0,0.755-0.048,0.898-0.119V6.788h-1.247V5.361h3.011L39.968,9.619L39.968,9.619z"/>
	<path fill="#FFFFFF" d="M43.823,1.907h1.811v3.574h0.036c0.181-0.313,0.372-0.601,0.553-0.888l1.835-2.687H50.3l-2.676,3.441
		l2.819,4.642h-2.136L46.329,6.5l-0.695,0.853V9.99h-1.811V1.907z"/>
	<path fill="#FFFFFF" d="M53.026,1.907v3.106h3.01V1.907h1.823V9.99h-1.823V6.608h-3.01V9.99H51.19V1.907H53.026z"/>
	<path fill="#FFFFFF" d="M66.858,5.865c0,2.649-1.606,4.257-3.969,4.257c-2.398,0-3.804-1.811-3.804-4.113
		c0-2.423,1.547-4.233,3.935-4.233C65.504,1.775,66.858,3.634,66.858,5.865z M61.019,5.974c0,1.582,0.743,2.697,1.967,2.697
		c1.234,0,1.943-1.175,1.943-2.746c0-1.451-0.696-2.698-1.955-2.698C61.737,3.227,61.019,4.401,61.019,5.974z"/>
	<path fill="#FFFFFF" d="M69.754,7.916L69.179,9.99h-1.896l2.47-8.083h2.399l2.506,8.083h-1.967l-0.623-2.074H69.754z M71.806,6.549
		l-0.504-1.716c-0.146-0.479-0.289-1.079-0.408-1.559H70.87c-0.121,0.479-0.24,1.091-0.373,1.559l-0.479,1.716H71.806z M73.04,0
		l-1.463,1.476h-1.463L71.122,0H73.04z"/>
	<path fill="#FFFFFF" d="M75.743,9.99V1.907h2.135l1.68,2.962c0.479,0.853,0.96,1.858,1.318,2.771h0.036
		c-0.12-1.066-0.156-2.158-0.156-3.37V1.907h1.68V9.99h-1.918l-1.729-3.118c-0.479-0.863-1.007-1.907-1.402-2.854L77.351,4.03
		c0.047,1.068,0.07,2.207,0.07,3.525V9.99H75.743z"/>
	<path fill="#FFFFFF" d="M88.329,7.916L87.754,9.99h-1.895l2.47-8.083h2.399l2.507,8.083h-1.967l-0.624-2.074H88.329z M90.381,6.549
		l-0.504-1.716c-0.144-0.479-0.288-1.079-0.406-1.559h-0.024c-0.12,0.479-0.239,1.091-0.372,1.559l-0.479,1.716H90.381z"/>
	<path fill="#FFFFFF" d="M100.771,9.619c-0.563,0.19-1.631,0.455-2.697,0.455c-1.477,0-2.543-0.371-3.287-1.091
		c-0.744-0.696-1.149-1.752-1.139-2.938c0.012-2.687,1.967-4.222,4.617-4.222c1.043,0,1.846,0.204,2.241,0.396l-0.383,1.463
		c-0.444-0.191-0.996-0.348-1.883-0.348c-1.523,0-2.676,0.863-2.676,2.614c0,1.668,1.043,2.65,2.543,2.65
		c0.42,0,0.756-0.048,0.899-0.119V6.788H97.76V5.361h3.011L100.771,9.619L100.771,9.619z"/>
	<path fill="#FFFFFF" d="M102.202,2.015c0.588-0.096,1.463-0.168,2.437-0.168c1.198,0,2.036,0.181,2.612,0.636
		c0.48,0.384,0.744,0.947,0.744,1.691c0,1.031-0.731,1.739-1.428,1.991V6.2c0.563,0.229,0.875,0.768,1.08,1.512
		c0.252,0.911,0.504,1.967,0.66,2.278h-1.871c-0.133-0.228-0.324-0.888-0.564-1.884c-0.215-1.008-0.563-1.282-1.307-1.295h-0.553
		V9.99h-1.812L102.202,2.015L102.202,2.015z M104.013,5.493h0.721c0.91,0,1.451-0.456,1.451-1.163c0-0.744-0.504-1.116-1.345-1.128
		c-0.442,0-0.694,0.036-0.827,0.06V5.493z"/>
	<path fill="#FFFFFF" d="M111.153,1.907V9.99h-1.834V1.907H111.153z"/>
	<path fill="#FFFFFF" d="M112.739,2.015c0.479-0.096,1.451-0.168,2.361-0.168c1.114,0,1.799,0.108,2.387,0.456
		c0.563,0.3,0.973,0.853,0.973,1.583c0,0.72-0.42,1.392-1.332,1.729v0.023c0.925,0.252,1.607,0.946,1.607,1.99
		c0,0.73-0.336,1.309-0.84,1.715c-0.588,0.469-1.57,0.731-3.179,0.731c-0.899,0-1.571-0.06-1.979-0.12L112.739,2.015L112.739,2.015z
		 M114.55,5.109h0.601c0.959,0,1.475-0.396,1.475-0.996c0-0.611-0.467-0.935-1.295-0.935c-0.396,0-0.623,0.023-0.779,0.048
		L114.55,5.109L114.55,5.109z M114.55,8.694c0.181,0.023,0.396,0.023,0.707,0.023c0.828,0,1.56-0.312,1.56-1.162
		c0-0.815-0.73-1.141-1.644-1.141h-0.623V8.694z"/>
	<path fill="#FFFFFF" d="M121.821,7.916l-0.576,2.074h-1.895l2.471-8.083h2.398l2.508,8.083h-1.967l-0.625-2.074H121.821z
		 M123.872,6.549l-0.504-1.716c-0.143-0.479-0.287-1.079-0.408-1.559h-0.022c-0.119,0.479-0.24,1.091-0.371,1.559l-0.48,1.716
		H123.872z"/>
	<path fill="#FFFFFF" d="M127.81,9.99V1.907h2.135l1.68,2.962c0.479,0.853,0.959,1.858,1.318,2.771h0.037
		c-0.121-1.066-0.156-2.158-0.156-3.37V1.907h1.678V9.99h-1.918l-1.727-3.118c-0.48-0.863-1.008-1.907-1.404-2.854l-0.035,0.012
		c0.047,1.068,0.072,2.207,0.072,3.525V9.99H127.81z"/>
	<path fill="#FFFFFF" d="M136.091,1.907h1.812v3.574h0.035c0.18-0.313,0.373-0.601,0.553-0.888l1.834-2.687h2.242l-2.674,3.441
		l2.817,4.642h-2.135l-1.979-3.49l-0.695,0.852v2.64h-1.812L136.091,1.907L136.091,1.907z"/>
</g>
</svg>
