<?xml version="1.0" encoding="utf-8"?>
<!-- Generator: Adobe Illustrator 16.0.0, SVG Export Plug-In . SVG Version: 6.00 Build 0)  -->
<!DOCTYPE svg PUBLIC "-//W3C//DTD SVG 1.1//EN" "http://www.w3.org/Graphics/SVG/1.1/DTD/svg11.dtd">
<svg version="1.1" id="Layer_1" xmlns="http://www.w3.org/2000/svg" xmlns:xlink="http://www.w3.org/1999/xlink" x="0px" y="0px"
	 width="61.911px" height="63.416px" viewBox="0 0 61.911 63.416" enable-background="new 0 0 61.911 63.416" xml:space="preserve">
<g>
	<g>
		<g>
			<g>
				<g>
					<defs>
						<path id="SVGID_1_" d="M-0.001,34.962c0,15.714,12.738,28.454,28.451,28.454c15.582,0,28.234-12.522,28.447-28.056h-2.574
							c-0.1,6.796-2.807,13.168-7.639,17.964c-4.883,4.848-11.357,7.516-18.234,7.516c-14.27,0-25.877-11.606-25.877-25.877
							c0-14.178,11.727-25.746,25.875-25.877V6.511C12.851,6.644-0.001,19.328-0.001,34.962"/>
					</defs>
					<clipPath id="SVGID_2_">
						<use xlink:href="#SVGID_1_"  overflow="visible"/>
					</clipPath>
					
						<linearGradient id="SVGID_3_" gradientUnits="userSpaceOnUse" x1="-1323.7129" y1="1039.4941" x2="-1323.4709" y2="1039.4941" gradientTransform="matrix(-32.0183 218.2168 -218.2168 -32.0183 184483.7969 322152.25)">
						<stop  offset="0" style="stop-color:#FAAE43"/>
						<stop  offset="3.051760e-007" style="stop-color:#FAAE43"/>
						<stop  offset="1" style="stop-color:#F15C2D"/>
					</linearGradient>
					<polygon clip-path="url(#SVGID_2_)" fill="url(#SVGID_3_)" points="65.071,7.71 55.698,71.588 -8.175,62.215 1.2,-1.662 					
						"/>
				</g>
			</g>
		</g>
	</g>
	<g>
		<g>
			<g>
				<g>
					<defs>
						<path id="SVGID_4_" d="M3.015,35.153c0,7.117,2.939,13.562,7.67,18.181c0.092,0.092,0.184,0.179,0.275,0.267
							c4.553,4.233,10.648,6.83,17.34,6.83c13.873,0,25.252-11.226,25.465-25.068H37.963v9.307h-0.024v0.129h-19.28V25.514h9.643
							V9.732C14.345,9.806,3.015,21.183,3.015,35.153"/>
					</defs>
					<clipPath id="SVGID_5_">
						<use xlink:href="#SVGID_4_"  overflow="visible"/>
					</clipPath>
					
						<linearGradient id="SVGID_6_" gradientUnits="userSpaceOnUse" x1="-1330.6343" y1="1034.6592" x2="-1330.3915" y2="1034.6592" gradientTransform="matrix(-172.9086 108.6221 -108.6221 -172.9086 -117642.8359 323460.3125)">
						<stop  offset="0" style="stop-color:#F18021"/>
						<stop  offset="1" style="stop-color:#FDC019"/>
						<stop  offset="1" style="stop-color:#FDC019"/>
					</linearGradient>
					<polygon clip-path="url(#SVGID_5_)" fill="url(#SVGID_6_)" points="76.601,46.084 17.374,83.289 -19.819,24.078 
						39.405,-13.127 					"/>
				</g>
			</g>
		</g>
	</g>
	<g>
		<g>
			<g>
				<g>
					<defs>
						<polygon id="SVGID_7_" points="19.368,26.134 19.368,44.178 37.411,44.178 37.411,35.36 35.272,35.36 35.272,42.094 
							21.423,42.094 21.423,28.396 28.39,28.396 28.39,26.134 						"/>
					</defs>
					<clipPath id="SVGID_8_">
						<use xlink:href="#SVGID_7_"  overflow="visible"/>
					</clipPath>
					
						<linearGradient id="SVGID_9_" gradientUnits="userSpaceOnUse" x1="-1323.2739" y1="1026.9121" x2="-1323.0321" y2="1026.9121" gradientTransform="matrix(-67.1874 83.5843 -83.5843 -67.1874 -3035.1089 179623.375)">
						<stop  offset="0" style="stop-color:#F18021"/>
						<stop  offset="1" style="stop-color:#FDC019"/>
						<stop  offset="1" style="stop-color:#FDC019"/>
					</linearGradient>
					<polygon clip-path="url(#SVGID_8_)" fill="url(#SVGID_9_)" points="46.222,33.216 30.331,52.987 10.556,37.097 26.45,17.322 
											"/>
				</g>
			</g>
		</g>
	</g>
	<g>
		<g>
			<g>
				<g>
					<defs>
						<path id="SVGID_10_" d="M46.465,26.527c0.453-1.109,1.105-2.301,2.048-3.549c0.582-0.775,1.17-1.449,1.758-2.039
							c0.002-0.223,0-0.451-0.004-0.683c-0.134-7.539-2.634-11.422-3.802-12.831V26.527L46.465,26.527z"/>
					</defs>
					<clipPath id="SVGID_11_">
						<use xlink:href="#SVGID_10_"  overflow="visible"/>
					</clipPath>
					
						<linearGradient id="SVGID_12_" gradientUnits="userSpaceOnUse" x1="-1357.7485" y1="1060.8916" x2="-1357.5059" y2="1060.8916" gradientTransform="matrix(7.3888 -69.8245 69.8245 7.3888 -63997.2383 -102611.3047)">
						<stop  offset="0" style="stop-color:#FAAE43"/>
						<stop  offset="3.051760e-007" style="stop-color:#FAAE43"/>
						<stop  offset="1" style="stop-color:#F6E82B"/>
					</linearGradient>
					<polygon clip-path="url(#SVGID_11_)" fill="url(#SVGID_12_)" points="44.467,26.316 46.506,7.029 52.269,7.639 50.228,26.927 
											"/>
				</g>
			</g>
		</g>
	</g>
	<g>
		<g>
			<g>
				<g>
					<defs>
						<path id="SVGID_13_" d="M50.624,21.082c-0.061,0.063-0.119,0.119-0.182,0.182c-0.061,0.063-0.119,0.126-0.18,0.189
							c-0.49,0.511-0.979,1.08-1.463,1.725c-1.189,1.581-1.912,3.068-2.334,4.406c-0.064,0.197-0.117,0.391-0.17,0.58
							c0.065,0.26,0.123,0.513,0.17,0.758c0.305,1.645,0.182,2.977,0,3.856c-0.01,0.041-0.019,0.082-0.025,0.121l0.025-0.034
							l1.902-2.652l0.516-0.721l0.443-0.619l8.301-11.572C56.353,17.482,53.536,18.213,50.624,21.082"/>
					</defs>
					<clipPath id="SVGID_14_">
						<use xlink:href="#SVGID_13_"  overflow="visible"/>
					</clipPath>
					
						<linearGradient id="SVGID_15_" gradientUnits="userSpaceOnUse" x1="-1353.1694" y1="1070.4189" x2="-1352.9268" y2="1070.4189" gradientTransform="matrix(26.7845 -58.3718 58.3718 26.7845 -26189.8555 -107624.9922)">
						<stop  offset="0" style="stop-color:#FAAE43"/>
						<stop  offset="3.051760e-007" style="stop-color:#FAAE43"/>
						<stop  offset="1" style="stop-color:#F6E82B"/>
					</linearGradient>
					<polygon clip-path="url(#SVGID_14_)" fill="url(#SVGID_15_)" points="40.383,30.186 48.267,13.005 63.542,20.012 
						55.659,37.194 					"/>
				</g>
			</g>
		</g>
	</g>
	<g>
		<g>
			<g>
				<g>
					<defs>
						<path id="SVGID_16_" d="M42.89,28.875l2.887,4.024l0.218,0.302c0.008-0.028,0.016-0.062,0.022-0.091
							c0.028-0.118,0.063-0.25,0.09-0.396l0,0l0,0c0.172-0.844,0.291-2.127,0-3.712l0,0c-0.021-0.146-0.058-0.292-0.09-0.443
							c-0.029-0.129-0.063-0.263-0.099-0.397c-0.389-1.479-1.141-3.172-2.502-4.985c-0.604-0.802-1.217-1.492-1.824-2.093
							c-2.911-2.87-5.729-3.6-7.006-3.782L42.89,28.875z"/>
					</defs>
					<clipPath id="SVGID_17_">
						<use xlink:href="#SVGID_16_"  overflow="visible"/>
					</clipPath>
					
						<linearGradient id="SVGID_18_" gradientUnits="userSpaceOnUse" x1="-1367.9063" y1="1044.2881" x2="-1367.6635" y2="1044.2881" gradientTransform="matrix(-26.5998 -52.6454 52.6454 -26.5998 -91318.4844 -44202.7383)">
						<stop  offset="0" style="stop-color:#FAAE43"/>
						<stop  offset="3.051760e-007" style="stop-color:#FAAE43"/>
						<stop  offset="1" style="stop-color:#F6E82B"/>
					</linearGradient>
					<polygon clip-path="url(#SVGID_17_)" fill="url(#SVGID_18_)" points="36.991,37.953 28.188,20.533 43.997,12.547 
						52.799,29.967 					"/>
				</g>
			</g>
		</g>
	</g>
	<g>
		<g>
			<g>
				<g>
					<defs>
						<path id="SVGID_19_" d="M45.776,32.897l-2.887-4.024l-8.301-11.575c1.279,0.187,4.096,0.912,7.006,3.782
							c0.609,0.603,1.223,1.295,1.824,2.097c1.36,1.813,2.115,3.502,2.504,4.981c0.033,0.137,0.065,0.269,0.096,0.399
							c0.035,0.153,0.068,0.298,0.09,0.442h0.004c0.127,0.699,0.176,1.336,0.176,1.902c0,0.726-0.076,1.334-0.176,1.809v0.005
							c-0.029,0.144-0.063,0.276-0.094,0.396c-0.008,0.025-0.016,0.06-0.021,0.091L45.776,32.897z M46.465,32.778
							c0.183-0.88,0.306-2.216,0-3.856c-0.047-0.248-0.102-0.502-0.17-0.762c0.054-0.19,0.107-0.379,0.17-0.578
							c0.425-1.334,1.146-2.825,2.334-4.404c0.486-0.645,0.976-1.214,1.466-1.729c0.06-0.063,0.118-0.127,0.178-0.187l0.185-0.183
							c2.912-2.871,5.729-3.596,7.006-3.783l-8.301,11.576l-0.445,0.617l-0.514,0.717l-1.904,2.656l-0.023,0.035
							C46.45,32.858,46.456,32.817,46.465,32.778 M46.465,7.426c1.166,1.41,3.668,5.293,3.804,12.831
							c0.006,0.231,0.006,0.461,0.006,0.687c-0.592,0.586-1.183,1.262-1.76,2.035c-0.943,1.25-1.597,2.44-2.05,3.549V7.426
							L46.465,7.426z M45.97,6.67c-0.009,0.004-0.017,0.012-0.021,0.02l-0.24-4.975l-0.445,0.021l0.258,5.416
							c-1.189,1.396-3.785,5.323-3.922,13.1c-0.004,0.115,0,0.23-0.004,0.34c-3.203-3.037-6.252-3.582-7.32-3.674l-3.455-5.364
							l-0.385,0.229l3.383,5.248c-0.004,0.016-0.012,0.033-0.02,0.053l-2.674-3.692l-0.365,0.243l2.891,3.997
							c-0.355,1.541-0.713,5.374,2.619,10.252c3.594,5.254,7.938,5.979,9.359,6.069v1.412h1.092V33.94
							c1.539-0.127,5.734-0.955,9.229-6.058c3.232-4.737,2.988-8.49,2.648-10.112l2.992-4.136l-0.371-0.244l-2.76,3.818
							c-0.01-0.017-0.017-0.03-0.019-0.048l3.472-5.379l-0.382-0.229l-3.45,5.353c-0.925,0.063-4.105,0.508-7.459,3.686
							c-0.002-0.109,0-0.225-0.002-0.34c-0.148-8.463-3.216-12.368-4.203-13.411l0.041-6.837L46.008,0L45.97,6.67z"/>
					</defs>
					<clipPath id="SVGID_20_">
						<use xlink:href="#SVGID_19_"  overflow="visible"/>
					</clipPath>
					
						<linearGradient id="SVGID_21_" gradientUnits="userSpaceOnUse" x1="-1344.4277" y1="1058.5303" x2="-1344.1847" y2="1058.5303" gradientTransform="matrix(41.7854 -108.6419 108.6419 41.7854 -58782.8633 -190259.4844)">
						<stop  offset="0" style="stop-color:#F18021"/>
						<stop  offset="1" style="stop-color:#FDC019"/>
						<stop  offset="1" style="stop-color:#FDC019"/>
					</linearGradient>
					<polygon clip-path="url(#SVGID_20_)" fill="url(#SVGID_21_)" points="18.583,30.811 34.489,-10.549 73.763,4.557 
						57.854,45.914 					"/>
				</g>
			</g>
		</g>
	</g>
	<path fill="#FFFFFF" d="M6.36,40.017l-0.395-1.322l6.654,0.342l0.436,1.447l-5.379,3.922L7.27,43.04l1.121-0.758l-0.666-2.219
		L6.36,40.017z M8.866,40.088l0.459,1.533l2.154-1.459l-0.004-0.019L8.866,40.088z"/>
	<path fill="#FFFFFF" d="M13.567,47.188l1.635,2.053l-2.648,2.107l-0.545-0.685l0.537-0.592c-0.508-0.021-1.256-0.046-1.967-0.939
		c-0.943-1.184-0.949-2.934,0.771-4.307c1.336-1.063,3.189-1.33,4.504,0.317l0.012,0.015c1.197,1.506,0.693,2.879,0.061,3.473
		l-0.816-1.024c0.189-0.154,0.527-0.992-0.049-1.719c-0.582-0.73-1.629-1.007-2.887-0.003c-1.342,1.066-1.107,2.076-0.551,2.773
		c0.18,0.227,0.867,0.907,2.027,0.332l-0.908-1.146L13.567,47.188z"/>
	<path fill="#FFFFFF" d="M18.53,48.242l2.799,1.491c1.475,0.787,1.166,2.019,0.908,2.496c-0.326,0.607-0.912,0.97-1.563,0.861
		c0.352,0.443,0.506,0.744-0.045,1.777c-0.434,0.813-0.541,1.012-0.344,1.236l-0.076,0.146l-1.279-0.683
		c0.063-0.305,0.166-0.614,0.473-1.186c0.404-0.754,0.514-1.074-0.342-1.529l-1.197-0.639l-1.154,2.168l-1.135-0.604L18.53,48.242z
		 M19.722,52.008c0.6,0.322,1.004,0.271,1.297-0.276c0.156-0.293,0.254-0.797-0.422-1.158l-1.441-0.771l-0.789,1.48L19.722,52.008z"
		/>
	
		<rect x="23.872" y="50.917" transform="matrix(-0.979 -0.2038 0.2038 -0.979 37.5275 111.9762)" fill="#FFFFFF" width="1.313" height="6.279"/>
	<path fill="#FFFFFF" d="M28.626,55.722c0.033,0.35,0.26,0.995,1.398,0.909c0.619-0.049,1.299-0.248,1.246-0.909
		c-0.037-0.488-0.516-0.584-1.191-0.689l-0.684-0.105c-1.025-0.158-2.021-0.311-2.127-1.688c-0.053-0.697,0.229-1.957,2.26-2.111
		c1.92-0.145,2.527,1.072,2.594,1.836l-1.253,0.096c-0.057-0.274-0.211-0.932-1.354-0.844c-0.498,0.037-1.076,0.268-1.031,0.834
		c0.037,0.488,0.445,0.561,0.711,0.604l1.557,0.259c0.867,0.146,1.678,0.432,1.764,1.56c0.146,1.881-1.76,2.192-2.309,2.233
		c-2.283,0.176-2.779-1.111-2.838-1.888L28.626,55.722z"/>
	<polygon fill="#FFFFFF" points="37.954,49.758 34.942,51.185 35.508,52.377 38.272,51.065 38.75,52.072 35.981,53.379 
		36.679,54.849 39.825,53.36 40.297,54.362 35.991,56.403 33.304,50.729 37.478,48.756 	"/>
	<path fill="#FFFFFF" d="M42.829,46.437c-0.348-0.183-1.002-0.517-1.74,0.278c-0.43,0.459-0.752,1.425,0.548,2.634
		c0.823,0.77,1.87,1.131,2.627,0.319c0.493-0.53,0.538-1.183,0.084-1.821l0.896-0.959c0.815,1.12,0.907,2.422-0.16,3.573
		c-1.142,1.224-2.781,1.332-4.367-0.146c-1.607-1.496-1.563-3.186-0.463-4.368c1.281-1.378,2.746-1.052,3.473-0.474L42.829,46.437z"
		/>
	<path fill="#FFFFFF" d="M43.53,40.476c0.277-0.783,1.346-2.724,4.123-1.736c2.775,0.984,2.383,3.164,2.105,3.945
		c-0.279,0.782-1.346,2.723-4.121,1.739C42.858,43.438,43.252,41.258,43.53,40.476 M48.713,42.313c0.236-0.67,0.156-1.754-1.5-2.344
		c-1.655-0.586-2.397,0.207-2.639,0.875c-0.236,0.666-0.154,1.752,1.5,2.342C47.729,43.772,48.478,42.979,48.713,42.313"/>
</g>
</svg>
