<?xml version="1.0" encoding="utf-8"?>
<!-- Generator: Adobe Illustrator 16.0.0, SVG Export Plug-In . SVG Version: 6.00 Build 0)  -->
<!DOCTYPE svg PUBLIC "-//W3C//DTD SVG 1.1//EN" "http://www.w3.org/Graphics/SVG/1.1/DTD/svg11.dtd">
<svg version="1.1" id="Layer_1" xmlns="http://www.w3.org/2000/svg" xmlns:xlink="http://www.w3.org/1999/xlink" x="0px" y="0px"
	 width="211.081px" height="63.416px" viewBox="0 0 211.081 63.416" enable-background="new 0 0 211.081 63.416"
	 xml:space="preserve">
<g>
	<g>
		<g>
			<g>
				<g>
					<defs>
						<path id="SVGID_22_" d="M0,34.962c0,15.714,12.737,28.453,28.451,28.453c15.582,0,28.233-12.522,28.447-28.054h-2.574
							c-0.101,6.795-2.808,13.168-7.64,17.963c-4.882,4.848-11.357,7.516-18.233,7.516c-14.27,0-25.878-11.608-25.878-25.877
							c0-14.178,11.727-25.746,25.875-25.877V6.511C12.852,6.644,0,19.329,0,34.962"/>
					</defs>
					<clipPath id="SVGID_2_">
						<use xlink:href="#SVGID_22_"  overflow="visible"/>
					</clipPath>
					
						<linearGradient id="SVGID_3_" gradientUnits="userSpaceOnUse" x1="-1058.9683" y1="-511.9458" x2="-1058.7263" y2="-511.9458" gradientTransform="matrix(-32.0183 218.2168 218.2168 32.0183 77840.2656 247489.3438)">
						<stop  offset="0" style="stop-color:#FAAE43"/>
						<stop  offset="3.100000e-007" style="stop-color:#FAAE43"/>
						<stop  offset="1" style="stop-color:#F15C2D"/>
					</linearGradient>
					<polygon clip-path="url(#SVGID_2_)" fill="url(#SVGID_3_)" points="65.071,7.71 55.698,71.588 -8.174,62.215 1.2,-1.662 					
						"/>
				</g>
			</g>
		</g>
		<g>
			<g>
				<g>
					<defs>
						<path id="SVGID_25_" d="M3.016,35.155c0,7.116,2.939,13.561,7.669,18.18c0.092,0.092,0.185,0.178,0.276,0.266
							c4.552,4.233,10.647,6.83,17.34,6.83c13.872,0,25.252-11.226,25.464-25.068h-15.8v9.307h-0.025v0.129H18.66V25.514h9.642
							V9.732C14.345,9.806,3.016,21.183,3.016,35.155"/>
					</defs>
					<clipPath id="SVGID_5_">
						<use xlink:href="#SVGID_25_"  overflow="visible"/>
					</clipPath>
					
						<linearGradient id="SVGID_6_" gradientUnits="userSpaceOnUse" x1="-1064.1001" y1="-508.1333" x2="-1063.8573" y2="-508.1333" gradientTransform="matrix(-172.9086 108.6221 108.6221 172.9086 -128749.0703 203467.8594)">
						<stop  offset="0" style="stop-color:#F18021"/>
						<stop  offset="1" style="stop-color:#FDC019"/>
						<stop  offset="1" style="stop-color:#FDC019"/>
					</linearGradient>
					<polygon clip-path="url(#SVGID_5_)" fill="url(#SVGID_6_)" points="76.601,46.083 17.374,83.289 -19.819,24.078 
						39.405,-13.127 					"/>
				</g>
			</g>
		</g>
		<g>
			<g>
				<g>
					<defs>
						<polygon id="SVGID_28_" points="19.369,26.134 19.369,44.178 37.412,44.178 37.412,35.362 35.272,35.362 35.272,42.094 
							21.424,42.094 21.424,28.397 28.39,28.397 28.39,26.134 						"/>
					</defs>
					<clipPath id="SVGID_8_">
						<use xlink:href="#SVGID_28_"  overflow="visible"/>
					</clipPath>
					
						<linearGradient id="SVGID_9_" gradientUnits="userSpaceOnUse" x1="-1058.3325" y1="-502.4175" x2="-1058.0902" y2="-502.4175" gradientTransform="matrix(-67.1874 83.5843 83.5843 67.1874 -29074.0625 122238.8359)">
						<stop  offset="0" style="stop-color:#F18021"/>
						<stop  offset="1" style="stop-color:#FDC019"/>
						<stop  offset="1" style="stop-color:#FDC019"/>
					</linearGradient>
					<polygon clip-path="url(#SVGID_8_)" fill="url(#SVGID_9_)" points="46.223,33.216 30.331,52.989 10.557,37.096 26.451,17.323 
											"/>
				</g>
			</g>
		</g>
		<g>
			<g>
				<g>
					<defs>
						<path id="SVGID_31_" d="M46.467,26.527c0.452-1.109,1.105-2.3,2.047-3.549c0.581-0.774,1.17-1.448,1.758-2.038
							c0.002-0.223,0-0.452-0.005-0.683c-0.132-7.539-2.632-11.422-3.8-12.831V26.527L46.467,26.527z"/>
					</defs>
					<clipPath id="SVGID_11_">
						<use xlink:href="#SVGID_31_"  overflow="visible"/>
					</clipPath>
					
						<linearGradient id="SVGID_12_" gradientUnits="userSpaceOnUse" x1="-1085.3623" y1="-527.2603" x2="-1085.1191" y2="-527.2603" gradientTransform="matrix(7.3888 -69.8245 -69.8245 -7.3888 -28749.3828 -79649.1563)">
						<stop  offset="0" style="stop-color:#FAAE43"/>
						<stop  offset="3.100000e-007" style="stop-color:#FAAE43"/>
						<stop  offset="1" style="stop-color:#F6E82B"/>
					</linearGradient>
					<polygon clip-path="url(#SVGID_11_)" fill="url(#SVGID_12_)" points="44.468,26.316 46.508,7.03 52.27,7.639 50.229,26.927 
											"/>
				</g>
			</g>
		</g>
		<g>
			<g>
				<g>
					<defs>
						<path id="SVGID_34_" d="M50.625,21.083c-0.062,0.063-0.119,0.118-0.182,0.182c-0.061,0.063-0.12,0.126-0.181,0.188
							c-0.49,0.512-0.979,1.081-1.463,1.726c-1.188,1.581-1.911,3.068-2.334,4.405c-0.063,0.197-0.117,0.392-0.169,0.58
							c0.066,0.261,0.122,0.514,0.169,0.759c0.306,1.645,0.183,2.976,0,3.857c-0.01,0.041-0.017,0.082-0.024,0.121l0.024-0.035
							l1.903-2.652l0.515-0.721l0.443-0.619l8.302-11.572C56.354,17.483,53.536,18.213,50.625,21.083"/>
					</defs>
					<clipPath id="SVGID_14_">
						<use xlink:href="#SVGID_34_"  overflow="visible"/>
					</clipPath>
					
						<linearGradient id="SVGID_15_" gradientUnits="userSpaceOnUse" x1="-1082.1606" y1="-534.5879" x2="-1081.918" y2="-534.5879" gradientTransform="matrix(26.7845 -58.3718 -58.3718 -26.7845 -2171.1816 -77453.7344)">
						<stop  offset="0" style="stop-color:#FAAE43"/>
						<stop  offset="3.100000e-007" style="stop-color:#FAAE43"/>
						<stop  offset="1" style="stop-color:#F6E82B"/>
					</linearGradient>
					<polygon clip-path="url(#SVGID_14_)" fill="url(#SVGID_15_)" points="40.385,30.186 48.268,13.005 63.542,20.012 
						55.659,37.195 					"/>
				</g>
			</g>
		</g>
		<g>
			<g>
				<g>
					<defs>
						<path id="SVGID_37_" d="M42.891,28.875l2.887,4.026l0.217,0.3c0.008-0.027,0.016-0.06,0.022-0.09
							c0.03-0.118,0.063-0.25,0.09-0.396l0,0l0,0c0.172-0.844,0.292-2.127,0-3.712l0,0c-0.021-0.146-0.057-0.292-0.09-0.443
							c-0.028-0.129-0.063-0.263-0.097-0.397c-0.389-1.479-1.141-3.173-2.503-4.985c-0.604-0.802-1.217-1.492-1.824-2.094
							c-2.911-2.869-5.728-3.599-7.005-3.781L42.891,28.875z"/>
					</defs>
					<clipPath id="SVGID_17_">
						<use xlink:href="#SVGID_37_"  overflow="visible"/>
					</clipPath>
					
						<linearGradient id="SVGID_18_" gradientUnits="userSpaceOnUse" x1="-1092.5771" y1="-514.4321" x2="-1092.3347" y2="-514.4321" gradientTransform="matrix(-26.5998 -52.6454 -52.6454 26.5998 -56100.2617 -43802.043)">
						<stop  offset="0" style="stop-color:#FAAE43"/>
						<stop  offset="3.100000e-007" style="stop-color:#FAAE43"/>
						<stop  offset="1" style="stop-color:#F6E82B"/>
					</linearGradient>
					<polygon clip-path="url(#SVGID_17_)" fill="url(#SVGID_18_)" points="36.992,37.954 28.189,20.533 43.998,12.547 52.8,29.967 
											"/>
				</g>
			</g>
		</g>
		<g>
			<g>
				<g>
					<defs>
						<path id="SVGID_40_" d="M45.777,32.899l-2.887-4.025L34.59,17.298c1.278,0.187,4.095,0.912,7.006,3.782
							c0.608,0.603,1.223,1.294,1.824,2.097c1.361,1.812,2.114,3.502,2.503,4.98c0.034,0.138,0.066,0.27,0.097,0.4
							c0.035,0.153,0.067,0.298,0.089,0.442h0.004c0.128,0.698,0.176,1.336,0.176,1.901c0,0.727-0.076,1.334-0.176,1.81v0.005
							c-0.028,0.144-0.063,0.275-0.093,0.396c-0.009,0.025-0.016,0.059-0.022,0.089L45.777,32.899z M46.466,32.779
							c0.182-0.88,0.305-2.216,0-3.856c-0.047-0.248-0.102-0.502-0.169-0.763c0.053-0.189,0.106-0.379,0.169-0.578
							c0.425-1.333,1.146-2.824,2.334-4.403c0.487-0.646,0.976-1.214,1.465-1.729c0.06-0.063,0.12-0.128,0.179-0.187l0.183-0.184
							c2.912-2.871,5.729-3.596,7.007-3.782l-8.302,11.575l-0.445,0.618l-0.513,0.717l-1.905,2.655l-0.023,0.035
							C46.451,32.86,46.457,32.818,46.466,32.779 M46.466,7.426c1.166,1.41,3.669,5.293,3.803,12.831
							c0.006,0.231,0.006,0.461,0.006,0.687c-0.592,0.585-1.182,1.261-1.76,2.034c-0.942,1.25-1.595,2.441-2.048,3.549L46.466,7.426
							L46.466,7.426z M45.971,6.67c-0.008,0.004-0.016,0.012-0.021,0.02l-0.24-4.975l-0.446,0.021l0.259,5.417
							c-1.19,1.396-3.786,5.323-3.923,13.1c-0.004,0.114,0,0.229-0.004,0.34c-3.202-3.037-6.252-3.582-7.319-3.675l-3.456-5.363
							l-0.385,0.229l3.383,5.248c-0.003,0.017-0.011,0.033-0.019,0.053l-2.675-3.691l-0.365,0.243l2.892,3.997
							c-0.355,1.541-0.714,5.374,2.618,10.252c3.594,5.254,7.938,5.977,9.36,6.069v1.411h1.091v-1.424
							c1.54-0.127,5.734-0.954,9.229-6.057c3.233-4.738,2.989-8.49,2.649-10.112l2.991-4.136l-0.37-0.244l-2.761,3.818
							c-0.01-0.017-0.015-0.03-0.018-0.048l3.471-5.379l-0.38-0.229l-3.451,5.352c-0.925,0.063-4.105,0.507-7.459,3.686
							c-0.002-0.11,0-0.226-0.002-0.34c-0.149-8.464-3.216-12.368-4.204-13.411l0.042-6.837L46.01,0L45.971,6.67z"/>
					</defs>
					<clipPath id="SVGID_20_">
						<use xlink:href="#SVGID_40_"  overflow="visible"/>
					</clipPath>
					
						<linearGradient id="SVGID_21_" gradientUnits="userSpaceOnUse" x1="-1075.1899" y1="-525.8896" x2="-1074.9473" y2="-525.8896" gradientTransform="matrix(41.7854 -108.6419 -108.6419 -41.7854 -12165.9893 -138752.4219)">
						<stop  offset="0" style="stop-color:#F18021"/>
						<stop  offset="1" style="stop-color:#FDC019"/>
						<stop  offset="1" style="stop-color:#FDC019"/>
					</linearGradient>
					<polygon clip-path="url(#SVGID_20_)" fill="url(#SVGID_21_)" points="18.584,30.811 34.49,-10.548 73.763,4.557 57.854,45.914 
											"/>
				</g>
			</g>
		</g>
		<path fill="#FFFFFF" d="M6.361,40.016l-0.396-1.322l6.655,0.341l0.435,1.448l-5.378,3.922L7.271,43.04l1.121-0.758l-0.665-2.219
			L6.361,40.016z M8.867,40.088l0.459,1.532l2.153-1.458l-0.003-0.018L8.867,40.088z"/>
		<path fill="#FFFFFF" d="M13.567,47.188l1.636,2.053l-2.648,2.107l-0.545-0.685l0.536-0.592c-0.508-0.021-1.255-0.044-1.967-0.938
			c-0.943-1.185-0.949-2.935,0.772-4.308c1.336-1.063,3.188-1.33,4.503,0.319l0.012,0.014c1.198,1.506,0.693,2.879,0.061,3.473
			l-0.816-1.026c0.19-0.153,0.528-0.991-0.049-1.718c-0.582-0.731-1.628-1.006-2.887-0.002c-1.341,1.066-1.106,2.076-0.55,2.773
			c0.18,0.227,0.866,0.908,2.027,0.332l-0.909-1.145L13.567,47.188z"/>
		<path fill="#FFFFFF" d="M18.53,48.242l2.8,1.493c1.474,0.786,1.165,2.018,0.907,2.495c-0.325,0.608-0.912,0.97-1.562,0.862
			c0.351,0.442,0.506,0.744-0.046,1.777c-0.433,0.813-0.54,1.012-0.343,1.235l-0.077,0.147l-1.279-0.683
			c0.063-0.304,0.167-0.614,0.473-1.185c0.404-0.754,0.514-1.074-0.342-1.529l-1.197-0.639l-1.153,2.168l-1.136-0.604L18.53,48.242z
			 M19.722,52.008c0.601,0.321,1.005,0.27,1.298-0.278c0.155-0.293,0.254-0.796-0.423-1.157l-1.441-0.771l-0.789,1.48L19.722,52.008
			z"/>
		
			<rect x="23.871" y="50.918" transform="matrix(0.9791 0.2033 -0.2033 0.9791 11.5004 -3.857)" fill="#FFFFFF" width="1.312" height="6.279"/>
		<path fill="#FFFFFF" d="M28.626,55.721c0.034,0.349,0.261,0.996,1.399,0.91c0.619-0.049,1.299-0.248,1.246-0.91
			c-0.037-0.488-0.517-0.584-1.191-0.69l-0.684-0.104c-1.026-0.158-2.021-0.312-2.128-1.688c-0.053-0.697,0.229-1.956,2.26-2.11
			c1.92-0.146,2.528,1.071,2.595,1.836l-1.254,0.096c-0.058-0.276-0.211-0.932-1.354-0.844c-0.497,0.037-1.076,0.267-1.031,0.834
			c0.037,0.488,0.446,0.561,0.711,0.603l1.557,0.259c0.868,0.145,1.679,0.432,1.764,1.559c0.146,1.881-1.76,2.193-2.309,2.234
			c-2.283,0.176-2.778-1.111-2.838-1.888L28.626,55.721z"/>
		<polygon fill="#FFFFFF" points="37.954,49.758 34.943,51.184 35.509,52.377 38.273,51.067 38.751,52.072 35.981,53.379 
			36.68,54.848 39.825,53.362 40.299,54.364 35.992,56.404 33.304,50.73 37.478,48.756 		"/>
		<path fill="#FFFFFF" d="M42.829,46.436c-0.347-0.182-1.002-0.516-1.74,0.279c-0.429,0.459-0.752,1.424,0.547,2.633
			c0.825,0.769,1.871,1.131,2.627,0.319c0.495-0.53,0.539-1.182,0.084-1.821l0.895-0.959c0.817,1.121,0.909,2.422-0.16,3.574
			c-1.141,1.223-2.78,1.332-4.366-0.146c-1.608-1.495-1.563-3.185-0.463-4.369c1.28-1.377,2.745-1.051,3.472-0.472L42.829,46.436z"
			/>
		<path fill="#FFFFFF" d="M43.531,40.475c0.277-0.783,1.345-2.723,4.122-1.737c2.775,0.985,2.383,3.165,2.106,3.946
			c-0.279,0.783-1.346,2.723-4.122,1.74C42.859,43.439,43.253,41.258,43.531,40.475 M48.714,42.314
			c0.237-0.669,0.157-1.753-1.499-2.343c-1.656-0.586-2.399,0.207-2.639,0.875c-0.236,0.666-0.155,1.752,1.499,2.341
			C47.73,43.773,48.478,42.981,48.714,42.314"/>
	</g>
	<g>
		<path fill="#FFFFFF" d="M75.098,35.137c-0.336,0.168-1.092,0.348-2.075,0.348c-2.795,0-4.233-1.739-4.233-4.042
			c0-2.758,1.967-4.293,4.413-4.293c0.947,0,1.668,0.192,1.991,0.36l-0.372,1.451c-0.371-0.156-0.887-0.3-1.535-0.3
			c-1.451,0-2.578,0.875-2.578,2.674c0,1.619,0.959,2.639,2.59,2.639c0.553,0,1.164-0.12,1.523-0.264L75.098,35.137z"/>
		<path fill="#FFFFFF" d="M78.136,27.282v3.106h3.01v-3.106h1.823v8.083h-1.823v-3.382h-3.01v3.382H76.3v-8.083H78.136z"/>
		<path fill="#FFFFFF" d="M92.388,25.807c0.156,0.312,0.264,0.708,0.264,1.115c0,0.731-0.407,1.223-1.283,1.307l-0.203,0.024v3.562
			c0,2.495-1.26,3.682-3.371,3.682c-2.038,0-3.237-1.127-3.237-3.706v-4.509h1.835v4.653c0,1.391,0.527,2.099,1.463,2.099
			c0.959,0,1.487-0.672,1.487-2.099v-4.653h1.392c0.491,0,0.623-0.156,0.623-0.468c0-0.252-0.084-0.528-0.252-0.804L92.388,25.807z
			 M89.87,25.375l-1.476,1.476h-1.464l1.02-1.476H89.87z"/>
		<path fill="#FFFFFF" d="M93.304,35.365v-8.083h2.135l1.68,2.962c0.48,0.852,0.959,1.859,1.319,2.771h0.036
			c-0.12-1.067-0.156-2.159-0.156-3.37v-2.363h1.68v8.083h-1.92l-1.727-3.118c-0.48-0.864-1.008-1.907-1.403-2.854l-0.036,0.012
			c0.049,1.068,0.072,2.207,0.072,3.526v2.435H93.304z"/>
		<path fill="#FFFFFF" d="M108.337,34.994c-0.564,0.192-1.632,0.456-2.699,0.456c-1.475,0-2.543-0.372-3.286-1.091
			c-0.743-0.696-1.151-1.751-1.14-2.938c0.012-2.687,1.967-4.222,4.617-4.222c1.044,0,1.848,0.204,2.243,0.396l-0.384,1.463
			c-0.443-0.192-0.995-0.348-1.883-0.348c-1.523,0-2.674,0.863-2.674,2.614c0,1.667,1.043,2.651,2.542,2.651
			c0.42,0,0.755-0.048,0.899-0.12v-1.691h-1.247v-1.427h3.011V34.994z"/>
		<path fill="#FFFFFF" d="M112.192,27.282h1.811v3.574h0.036c0.18-0.312,0.372-0.6,0.552-0.888l1.835-2.687h2.243l-2.676,3.442
			l2.819,4.642h-2.136l-1.979-3.49l-0.695,0.852v2.639h-1.811V27.282z"/>
		<path fill="#FFFFFF" d="M121.396,27.282v3.106h3.01v-3.106h1.823v8.083h-1.823v-3.382h-3.01v3.382h-1.836v-8.083H121.396z"/>
		<path fill="#FFFFFF" d="M135.228,31.24c0,2.65-1.606,4.257-3.969,4.257c-2.398,0-3.803-1.811-3.803-4.114
			c0-2.422,1.547-4.233,3.934-4.233C133.873,27.15,135.228,29.009,135.228,31.24z M129.388,31.348c0,1.583,0.743,2.698,1.967,2.698
			c1.234,0,1.943-1.175,1.943-2.747c0-1.451-0.696-2.698-1.955-2.698C130.106,28.601,129.388,29.776,129.388,31.348z"/>
		<path fill="#FFFFFF" d="M138.123,33.291l-0.575,2.075h-1.895l2.47-8.083h2.399l2.506,8.083h-1.967l-0.623-2.075H138.123z
			 M140.175,31.923l-0.504-1.715c-0.145-0.479-0.289-1.08-0.408-1.559h-0.023c-0.121,0.479-0.24,1.091-0.373,1.559l-0.479,1.715
			H140.175z M141.409,25.375l-1.463,1.476h-1.463l1.008-1.476H141.409z"/>
		<path fill="#FFFFFF" d="M144.112,35.365v-8.083h2.135l1.68,2.962c0.479,0.852,0.959,1.859,1.318,2.771h0.037
			c-0.121-1.067-0.156-2.159-0.156-3.37v-2.363h1.679v8.083h-1.919l-1.727-3.118c-0.48-0.864-1.008-1.907-1.404-2.854l-0.035,0.012
			c0.048,1.068,0.072,2.207,0.072,3.526v2.435H144.112z"/>
		<path fill="#FFFFFF" d="M156.698,33.291l-0.575,2.075h-1.895l2.47-8.083h2.399l2.507,8.083h-1.967l-0.624-2.075H156.698z
			 M158.75,31.923l-0.504-1.715c-0.144-0.479-0.288-1.08-0.407-1.559h-0.024c-0.12,0.479-0.239,1.091-0.372,1.559l-0.479,1.715
			H158.75z"/>
		<path fill="#FFFFFF" d="M169.14,34.994c-0.563,0.192-1.631,0.456-2.697,0.456c-1.477,0-2.543-0.372-3.287-1.091
			c-0.744-0.696-1.15-1.751-1.139-2.938c0.012-2.687,1.967-4.222,4.617-4.222c1.043,0,1.846,0.204,2.242,0.396l-0.383,1.463
			c-0.445-0.192-0.996-0.348-1.883-0.348c-1.523,0-2.676,0.863-2.676,2.614c0,1.667,1.043,2.651,2.543,2.651
			c0.42,0,0.756-0.048,0.9-0.12v-1.691h-1.248v-1.427h3.01V34.994z"/>
		<path fill="#FFFFFF" d="M170.571,27.39c0.588-0.096,1.463-0.168,2.436-0.168c1.199,0,2.037,0.18,2.613,0.636
			c0.48,0.384,0.744,0.947,0.744,1.691c0,1.032-0.732,1.739-1.428,1.991v0.036c0.564,0.228,0.875,0.768,1.08,1.511
			c0.252,0.912,0.504,1.967,0.66,2.279h-1.871c-0.133-0.228-0.324-0.888-0.564-1.883c-0.215-1.008-0.564-1.284-1.307-1.295h-0.553
			v3.178h-1.811V27.39z M172.382,30.868h0.721c0.91,0,1.451-0.456,1.451-1.163c0-0.744-0.504-1.116-1.344-1.127
			c-0.443,0-0.695,0.036-0.828,0.06V30.868z"/>
		<path fill="#FFFFFF" d="M179.522,27.282v8.083h-1.834v-8.083H179.522z"/>
		<path fill="#FFFFFF" d="M181.108,27.39c0.479-0.096,1.451-0.168,2.361-0.168c1.115,0,1.799,0.108,2.387,0.456
			c0.564,0.3,0.973,0.852,0.973,1.583c0,0.719-0.42,1.391-1.332,1.727v0.024c0.924,0.252,1.607,0.947,1.607,1.991
			c0,0.731-0.336,1.308-0.84,1.715c-0.588,0.468-1.57,0.731-3.178,0.731c-0.9,0-1.572-0.06-1.979-0.12V27.39z M182.919,30.484h0.6
			c0.959,0,1.475-0.396,1.475-0.996c0-0.611-0.467-0.935-1.295-0.935c-0.396,0-0.623,0.024-0.779,0.048V30.484z M182.919,34.07
			c0.18,0.024,0.395,0.024,0.707,0.024c0.828,0,1.559-0.312,1.559-1.163c0-0.815-0.73-1.14-1.643-1.14h-0.623V34.07z"/>
		<path fill="#FFFFFF" d="M190.19,33.291l-0.576,2.075h-1.895l2.471-8.083h2.398l2.508,8.083h-1.967l-0.625-2.075H190.19z
			 M192.241,31.923l-0.504-1.715c-0.143-0.479-0.287-1.08-0.408-1.559h-0.023c-0.119,0.479-0.24,1.091-0.371,1.559l-0.48,1.715
			H192.241z"/>
		<path fill="#FFFFFF" d="M196.181,35.365v-8.083h2.135l1.678,2.962c0.48,0.852,0.959,1.859,1.32,2.771h0.035
			c-0.119-1.067-0.156-2.159-0.156-3.37v-2.363h1.68v8.083h-1.92l-1.727-3.118c-0.479-0.864-1.008-1.907-1.402-2.854l-0.037,0.012
			c0.049,1.068,0.072,2.207,0.072,3.526v2.435H196.181z"/>
		<path fill="#FFFFFF" d="M204.46,27.282h1.811v3.574h0.037c0.18-0.312,0.371-0.6,0.551-0.888l1.836-2.687h2.242l-2.674,3.442
			l2.818,4.642h-2.135l-1.98-3.49l-0.695,0.852v2.639h-1.811V27.282z"/>
	</g>
	<g>
		<path fill="#CB5428" d="M73.335,49.932c-0.29,0.145-0.871,0.291-1.615,0.291c-1.726,0-3.023-1.089-3.023-3.096
			c0-1.916,1.298-3.214,3.195-3.214c0.763,0,1.244,0.164,1.453,0.272l-0.191,0.645c-0.299-0.145-0.727-0.254-1.234-0.254
			c-1.435,0-2.388,0.917-2.388,2.524c0,1.498,0.862,2.46,2.352,2.46c0.481,0,0.972-0.1,1.289-0.254L73.335,49.932z"/>
		<path fill="#CB5428" d="M74.294,43.685h0.8v2.742h0.019c0.127-0.227,0.326-0.427,0.571-0.563c0.236-0.136,0.518-0.227,0.817-0.227
			c0.59,0,1.534,0.363,1.534,1.879v2.615h-0.799v-2.524c0-0.708-0.264-1.308-1.017-1.308c-0.518,0-0.926,0.363-1.072,0.799
			c-0.045,0.109-0.054,0.227-0.054,0.381v2.651h-0.8V43.685z"/>
		<path fill="#CB5428" d="M81.764,50.131L81.7,49.578h-0.027c-0.245,0.345-0.717,0.654-1.344,0.654c-0.89,0-1.344-0.626-1.344-1.262
			c0-1.062,0.945-1.643,2.643-1.634v-0.091c0-0.363-0.1-1.017-0.999-1.017c-0.408,0-0.835,0.127-1.144,0.327l-0.182-0.526
			c0.363-0.236,0.89-0.391,1.443-0.391c1.344,0,1.67,0.917,1.67,1.798v1.643c0,0.381,0.019,0.753,0.073,1.053H81.764z
			 M80.202,43.939c0.055,0.354,0.281,0.626,0.654,0.626c0.426,0,0.626-0.327,0.653-0.626h0.472c0,0.672-0.444,1.126-1.125,1.126
			c-0.799,0-1.127-0.563-1.127-1.126H80.202z M81.646,47.889c-0.871-0.018-1.861,0.136-1.861,0.99c0,0.518,0.346,0.763,0.754,0.763
			c0.572,0,0.936-0.363,1.063-0.735c0.027-0.082,0.045-0.172,0.045-0.254V47.889z"/>
		<path fill="#CB5428" d="M83.704,46.926c0-0.454-0.009-0.826-0.036-1.189h0.699l0.036,0.708h0.027
			c0.245-0.417,0.654-0.808,1.38-0.808c0.599,0,1.054,0.363,1.243,0.881h0.02c0.136-0.245,0.309-0.436,0.49-0.572
			c0.263-0.2,0.553-0.309,0.971-0.309c0.581,0,1.443,0.381,1.443,1.907v2.587h-0.78v-2.488c0-0.844-0.31-1.353-0.954-1.353
			c-0.453,0-0.808,0.336-0.943,0.726c-0.037,0.109-0.064,0.254-0.064,0.399v2.715h-0.78v-2.633c0-0.699-0.309-1.208-0.917-1.208
			c-0.499,0-0.862,0.399-0.989,0.799c-0.046,0.118-0.063,0.254-0.063,0.391v2.651h-0.781V46.926z"/>
		<path fill="#CB5428" d="M93.196,43.685h0.799v6.446h-0.799V43.685z"/>
		<path fill="#CB5428" d="M99.313,47.898c0,1.625-1.125,2.333-2.188,2.333c-1.189,0-2.105-0.872-2.105-2.261
			c0-1.471,0.962-2.333,2.178-2.333C98.461,45.637,99.313,46.554,99.313,47.898z M95.827,47.943c0,0.962,0.555,1.688,1.336,1.688
			c0.762,0,1.334-0.717,1.334-1.707c0-0.745-0.372-1.689-1.316-1.689S95.827,47.108,95.827,47.943z"/>
		<path fill="#CB5428" d="M106.029,45.737c-0.019,0.317-0.036,0.672-0.036,1.208v2.551c0,1.008-0.2,1.625-0.627,2.007
			c-0.426,0.399-1.044,0.526-1.598,0.526c-0.526,0-1.107-0.127-1.462-0.363l0.2-0.608c0.291,0.181,0.744,0.345,1.289,0.345
			c0.816,0,1.416-0.427,1.416-1.534v-0.49h-0.018c-0.246,0.408-0.718,0.735-1.398,0.735c-1.09,0-1.87-0.926-1.87-2.143
			c0-1.489,0.972-2.333,1.979-2.333c0.762,0,1.18,0.399,1.371,0.763h0.018l0.036-0.663H106.029z M105.203,47.471
			c0-0.136-0.009-0.254-0.046-0.363c-0.145-0.463-0.535-0.844-1.116-0.844c-0.763,0-1.308,0.645-1.308,1.662
			c0,0.862,0.436,1.58,1.299,1.58c0.49,0,0.935-0.309,1.107-0.817c0.045-0.136,0.063-0.291,0.063-0.427V47.471z"/>
		<path fill="#CB5428" d="M108.151,44.502c0.009,0.272-0.191,0.49-0.509,0.49c-0.281,0-0.481-0.218-0.481-0.49
			c0-0.282,0.209-0.5,0.5-0.5C107.96,44.003,108.151,44.221,108.151,44.502z M107.261,50.131v-4.394h0.8v4.394H107.261z"/>
		<path fill="#CB5428" d="M109.829,48.08c0.02,1.08,0.709,1.525,1.508,1.525c0.572,0,0.917-0.1,1.217-0.227l0.136,0.572
			c-0.281,0.127-0.763,0.272-1.462,0.272c-1.353,0-2.16-0.89-2.16-2.215s0.781-2.37,2.061-2.37c1.435,0,1.816,1.262,1.816,2.07
			c0,0.164-0.019,0.291-0.027,0.373H109.829z M112.173,47.507c0.008-0.508-0.209-1.298-1.108-1.298
			c-0.808,0-1.162,0.744-1.226,1.298H112.173z"/>
		<path fill="#CB5428" d="M117.907,47.898c0,1.625-1.125,2.333-2.188,2.333c-1.189,0-2.106-0.872-2.106-2.261
			c0-1.471,0.962-2.333,2.179-2.333C117.054,45.637,117.907,46.554,117.907,47.898z M114.421,47.943
			c0,0.962,0.555,1.688,1.335,1.688c0.763,0,1.335-0.717,1.335-1.707c0-0.745-0.373-1.689-1.316-1.689
			C114.829,46.236,114.421,47.108,114.421,47.943z"/>
		<path fill="#CB5428" d="M121.799,44.475v1.262h1.144v0.608h-1.144v2.37c0,0.545,0.154,0.854,0.599,0.854
			c0.209,0,0.363-0.027,0.464-0.054l0.036,0.599c-0.154,0.063-0.399,0.109-0.708,0.109c-0.372,0-0.672-0.118-0.862-0.336
			c-0.227-0.236-0.309-0.626-0.309-1.144v-2.397h-0.682v-0.608h0.682v-1.053L121.799,44.475z"/>
		<path fill="#CB5428" d="M123.84,47.108c0-0.518-0.009-0.962-0.036-1.371h0.699l0.027,0.862h0.036
			c0.2-0.59,0.681-0.962,1.216-0.962c0.092,0,0.155,0.009,0.228,0.027v0.753c-0.081-0.018-0.163-0.027-0.272-0.027
			c-0.563,0-0.962,0.427-1.071,1.026c-0.019,0.109-0.036,0.236-0.036,0.373v2.342h-0.79V47.108z"/>
		<path fill="#CB5428" d="M130.692,47.898c0,1.625-1.125,2.333-2.188,2.333c-1.189,0-2.105-0.872-2.105-2.261
			c0-1.471,0.962-2.333,2.178-2.333C129.84,45.637,130.692,46.554,130.692,47.898z M127.206,47.943c0,0.962,0.555,1.688,1.336,1.688
			c0.762,0,1.334-0.717,1.334-1.707c0-0.745-0.372-1.689-1.316-1.689S127.206,47.108,127.206,47.943z M128.878,43.84l0.78,1.298
			h-0.608l-0.454-0.853h-0.027l-0.454,0.853h-0.59l0.771-1.298H128.878z M129.667,43.095l0.581,1.198h-0.463l-0.845-1.198H129.667z"
			/>
		<path fill="#CB5428" d="M131.698,46.926c0-0.454-0.009-0.826-0.036-1.189h0.708l0.045,0.726h0.019
			c0.218-0.417,0.727-0.826,1.452-0.826c0.609,0,1.553,0.363,1.553,1.87v2.624h-0.799v-2.533c0-0.708-0.263-1.298-1.017-1.298
			c-0.526,0-0.935,0.373-1.071,0.817c-0.036,0.1-0.055,0.236-0.055,0.372v2.642h-0.799V46.926z"/>
		<path fill="#CB5428" d="M140.521,45.737c-0.018,0.317-0.036,0.672-0.036,1.208v2.551c0,1.008-0.2,1.625-0.626,2.007
			c-0.428,0.399-1.045,0.526-1.599,0.526c-0.526,0-1.107-0.127-1.462-0.363l0.2-0.608c0.29,0.181,0.744,0.345,1.289,0.345
			c0.817,0,1.416-0.427,1.416-1.534v-0.49h-0.019c-0.244,0.408-0.717,0.735-1.397,0.735c-1.089,0-1.87-0.926-1.87-2.143
			c0-1.489,0.971-2.333,1.979-2.333c0.764,0,1.181,0.399,1.371,0.763h0.019l0.036-0.663H140.521z M139.694,47.471
			c0-0.136-0.01-0.254-0.045-0.363c-0.146-0.463-0.536-0.844-1.117-0.844c-0.763,0-1.308,0.645-1.308,1.662
			c0,0.862,0.437,1.58,1.298,1.58c0.49,0,0.936-0.309,1.108-0.817c0.046-0.136,0.063-0.291,0.063-0.427V47.471z"/>
		<path fill="#CB5428" d="M147.526,45.12v3.877c0,0.39,0.008,0.835,0.035,1.135h-0.717l-0.036-0.763h-0.019
			c-0.245,0.49-0.781,0.863-1.498,0.863c-1.063,0-1.879-0.899-1.879-2.234c-0.01-1.461,0.898-2.36,1.97-2.36
			c0.672,0,1.126,0.318,1.325,0.672h0.019V45.12h-1.788v-0.499h1.788v-0.936h0.8v0.936h0.698v0.499H147.526z M146.727,47.526
			c0-0.1-0.009-0.236-0.036-0.336c-0.118-0.509-0.554-0.926-1.153-0.926c-0.826,0-1.316,0.727-1.316,1.698
			c0,0.89,0.437,1.625,1.298,1.625c0.536,0,1.026-0.354,1.172-0.953c0.027-0.109,0.036-0.218,0.036-0.345V47.526z"/>
		<path fill="#CB5428" d="M152.825,47.898c0,1.625-1.126,2.333-2.188,2.333c-1.188,0-2.106-0.872-2.106-2.261
			c0-1.471,0.963-2.333,2.18-2.333C151.972,45.637,152.825,46.554,152.825,47.898z M149.339,47.943c0,0.962,0.554,1.688,1.334,1.688
			c0.764,0,1.335-0.717,1.335-1.707c0-0.745-0.372-1.689-1.316-1.689S149.339,47.108,149.339,47.943z M151.009,43.84l0.781,1.298
			h-0.608l-0.454-0.853H150.7l-0.453,0.853h-0.591l0.772-1.298H151.009z M151.799,43.095l0.581,1.198h-0.463l-0.844-1.198H151.799z"
			/>
		<path fill="#CB5428" d="M153.83,46.926c0-0.454-0.009-0.826-0.036-1.189h0.708l0.046,0.726h0.018
			c0.219-0.417,0.727-0.826,1.453-0.826c0.607,0,1.553,0.363,1.553,1.87v2.624h-0.799v-2.533c0-0.708-0.264-1.298-1.018-1.298
			c-0.526,0-0.936,0.373-1.071,0.817c-0.036,0.1-0.054,0.236-0.054,0.372v2.642h-0.8V46.926z"/>
		<path fill="#CB5428" d="M162.652,45.737c-0.019,0.317-0.036,0.672-0.036,1.208v2.551c0,1.008-0.2,1.625-0.627,2.007
			c-0.426,0.399-1.044,0.526-1.598,0.526c-0.526,0-1.107-0.127-1.462-0.363l0.2-0.608c0.291,0.181,0.744,0.345,1.289,0.345
			c0.816,0,1.416-0.427,1.416-1.534v-0.49h-0.018c-0.246,0.408-0.718,0.735-1.398,0.735c-1.09,0-1.87-0.926-1.87-2.143
			c0-1.489,0.972-2.333,1.979-2.333c0.762,0,1.18,0.399,1.371,0.763h0.018l0.036-0.663H162.652z M161.826,47.471
			c0-0.136-0.009-0.254-0.046-0.363c-0.145-0.463-0.535-0.844-1.116-0.844c-0.763,0-1.308,0.645-1.308,1.662
			c0,0.862,0.436,1.58,1.299,1.58c0.49,0,0.935-0.309,1.107-0.817c0.045-0.136,0.063-0.291,0.063-0.427V47.471z"/>
		<path fill="#CB5428" d="M166.171,45.737l0.863,2.469c0.145,0.399,0.263,0.763,0.354,1.126h0.027
			c0.1-0.363,0.227-0.727,0.372-1.126l0.854-2.469h0.835l-1.725,4.394h-0.763l-1.671-4.394H166.171z"/>
		<path fill="#CB5428" d="M174.112,47.898c0,1.625-1.125,2.333-2.188,2.333c-1.189,0-2.105-0.872-2.105-2.261
			c0-1.471,0.962-2.333,2.178-2.333C173.26,45.637,174.112,46.554,174.112,47.898z M170.626,47.943c0,0.962,0.555,1.688,1.336,1.688
			c0.762,0,1.334-0.717,1.334-1.707c0-0.745-0.372-1.689-1.316-1.689S170.626,47.108,170.626,47.943z M172.298,43.84l0.78,1.298
			h-0.608l-0.463-0.853h-0.019l-0.463,0.853h-0.581l0.763-1.298H172.298z M174.186,43.095l-0.899,1.198h-0.463l0.617-1.198H174.186z
			"/>
		<path fill="#CB5428" d="M175.118,46.926c0-0.454-0.009-0.826-0.036-1.189h0.708l0.045,0.726h0.019
			c0.218-0.417,0.727-0.826,1.452-0.826c0.609,0,1.553,0.363,1.553,1.87v2.624h-0.799v-2.533c0-0.708-0.263-1.298-1.017-1.298
			c-0.526,0-0.935,0.373-1.071,0.817c-0.036,0.1-0.055,0.236-0.055,0.372v2.642h-0.799V46.926z"/>
		<path fill="#CB5428" d="M185.21,49.968c-0.208,0.109-0.672,0.254-1.262,0.254c-1.325,0-2.188-0.899-2.188-2.243
			c0-1.353,0.926-2.333,2.36-2.333c0.472,0,0.89,0.118,1.107,0.227l-0.182,0.617c-0.19-0.109-0.49-0.209-0.926-0.209
			c-1.008,0-1.553,0.745-1.553,1.662c0,1.017,0.653,1.643,1.525,1.643c0.454,0,0.753-0.118,0.98-0.218L185.21,49.968z"/>
		<path fill="#CB5428" d="M189.821,48.933c0,0.454,0.008,0.853,0.035,1.198h-0.707l-0.046-0.717h-0.019
			c-0.209,0.354-0.672,0.817-1.452,0.817c-0.69,0-1.517-0.381-1.517-1.925v-2.569h0.799v2.433c0,0.835,0.254,1.398,0.98,1.398
			c0.536,0,0.908-0.372,1.054-0.726c0.046-0.118,0.073-0.264,0.073-0.409v-2.696h0.799V48.933z M187.679,45.21
			c0.108-0.399,0.518-0.518,0.518-0.854c0-0.19-0.137-0.309-0.31-0.309c-0.19,0-0.336,0.154-0.436,0.318l-0.309-0.182
			c0.154-0.327,0.436-0.608,0.89-0.608c0.427,0,0.763,0.282,0.763,0.681c0,0.508-0.481,0.654-0.69,1.062L187.679,45.21z"/>
		<path fill="#CB5428" d="M193.577,50.131l-0.063-0.554h-0.027c-0.245,0.345-0.717,0.654-1.344,0.654
			c-0.89,0-1.344-0.626-1.344-1.262c0-1.062,0.944-1.643,2.643-1.634v-0.091c0-0.363-0.1-1.017-0.999-1.017
			c-0.408,0-0.835,0.127-1.144,0.327l-0.182-0.526c0.363-0.236,0.89-0.391,1.443-0.391c1.344,0,1.671,0.917,1.671,1.798v1.643
			c0,0.381,0.018,0.753,0.072,1.053H193.577z M193.459,47.889c-0.871-0.018-1.86,0.136-1.86,0.99c0,0.518,0.345,0.763,0.753,0.763
			c0.572,0,0.936-0.363,1.063-0.735c0.027-0.082,0.045-0.172,0.045-0.254V47.889z"/>
		<path fill="#CB5428" d="M197.405,50.131c0.019-0.3,0.037-0.745,0.037-1.135v-5.312h0.79v2.76h0.018
			c0.281-0.49,0.79-0.808,1.498-0.808c1.09,0,1.861,0.908,1.853,2.243c0,1.57-0.99,2.352-1.971,2.352
			c-0.636,0-1.144-0.246-1.471-0.827h-0.027l-0.036,0.727H197.405z M198.232,48.37c0,0.1,0.018,0.2,0.036,0.291
			c0.154,0.554,0.617,0.935,1.198,0.935c0.835,0,1.335-0.681,1.335-1.688c0-0.881-0.454-1.634-1.308-1.634
			c-0.545,0-1.054,0.372-1.217,0.98c-0.019,0.091-0.045,0.2-0.045,0.327V48.37z"/>
		<path fill="#CB5428" d="M205.038,50.131l-0.063-0.554h-0.027c-0.245,0.345-0.717,0.654-1.344,0.654
			c-0.89,0-1.344-0.626-1.344-1.262c0-1.062,0.944-1.643,2.643-1.634v-0.091c0-0.363-0.1-1.017-0.999-1.017
			c-0.408,0-0.835,0.127-1.144,0.327l-0.182-0.526c0.363-0.236,0.89-0.391,1.443-0.391c1.344,0,1.671,0.917,1.671,1.798v1.643
			c0,0.381,0.018,0.753,0.072,1.053H205.038z M204.92,47.889c-0.871-0.018-1.86,0.136-1.86,0.99c0,0.518,0.345,0.763,0.753,0.763
			c0.572,0,0.936-0.363,1.063-0.735c0.027-0.082,0.045-0.172,0.045-0.254V47.889z M204.575,51.321c0,0.254-0.182,0.472-0.454,0.472
			c-0.263,0-0.454-0.218-0.454-0.472c0-0.254,0.2-0.463,0.464-0.463C204.385,50.858,204.575,51.066,204.575,51.321z"/>
		<path fill="#CB5428" d="M206.979,46.926c0-0.454-0.01-0.826-0.037-1.189h0.709l0.045,0.726h0.019
			c0.218-0.417,0.726-0.826,1.452-0.826c0.608,0,1.553,0.363,1.553,1.87v2.624h-0.799v-2.533c0-0.708-0.264-1.298-1.017-1.298
			c-0.527,0-0.936,0.373-1.071,0.817c-0.037,0.1-0.055,0.236-0.055,0.372v2.642h-0.799V46.926z"/>
	</g>
</g>
</svg>
